<svg width="23" height="17" viewBox="0 0 23 17" fill="none" xmlns="http://www.w3.org/2000/svg">
<path d="M15.7031 9.14062C17.0625 10.0781 18 11.3438 18 13.0312V16.0312H21C21.5625 16.0312 22.0312 15.5625 22.0312 15V13.0312C22.0312 10.8281 18.4688 9.5625 15.7031 9.14062ZM4.03125 4.03125C4.03125 1.82812 5.8125 0 8.01562 0C10.2188 0 12 1.82812 12 4.03125C12 6.23438 10.2188 8.01562 8.01562 8.01562C5.8125 8.01562 4.03125 6.23438 4.03125 4.03125ZM14.0156 8.01562C16.2188 8.01562 18 6.23438 18 4.03125C18 1.82812 16.2188 0 14.0156 0C13.5469 0 13.125 0.09375 12.7031 0.234375C13.5 1.26562 14.0156 2.57812 14.0156 4.03125C14.0156 5.4375 13.5 6.75 12.7031 7.78125C13.125 7.92188 13.5469 8.01562 14.0156 8.01562ZM8.01562 9C5.34375 9 0 10.3594 0 13.0312V15C0 15.5625 0.46875 16.0312 1.03125 16.0312H15C15.5625 16.0312 16.0312 15.5625 16.0312 15V13.0312C16.0312 10.3594 10.6875 9 8.01562 9Z" fill="#475569"/>
</svg>
