<svg width="20" height="20" viewBox="0 0 20 20" fill="none" xmlns="http://www.w3.org/2000/svg">
<path d="M19.9688 13.9688V1.96875C19.9688 0.890625 19.0781 0 18 0H6C4.875 0 3.98438 0.890625 3.98438 1.96875V13.9688C3.98438 15.0938 4.875 15.9844 6 15.9844H18C19.0781 15.9844 19.9688 15.0938 19.9688 13.9688ZM9.375 10.5L11.0156 12.7031L13.5938 9.46875C13.7812 9.23438 14.1562 9.23438 14.3906 9.46875L17.3438 13.1719C17.5781 13.5 17.3438 13.9688 16.9219 13.9688H6.98438C6.5625 13.9688 6.32812 13.5 6.5625 13.1719L8.57812 10.5C8.76562 10.2656 9.1875 10.2656 9.375 10.5ZM0 4.96875V18C0 19.0781 0.890625 19.9688 1.96875 19.9688H15C15.5156 19.9688 15.9844 19.5469 15.9844 18.9844C15.9844 18.4219 15.5156 18 15 18H3C2.4375 18 1.96875 17.5312 1.96875 16.9688V4.96875C1.96875 4.45312 1.54688 3.98438 0.984375 3.98438C0.421875 3.98438 0 4.45312 0 4.96875Z" fill="#475569"/>
</svg>
