<svg width="18" height="20" viewBox="0 0 18 20" fill="none" xmlns="http://www.w3.org/2000/svg">
<path d="M14.0156 0C13.4531 0 12.9844 0.421875 12.9844 0.984375V1.96875H5.01562V0.984375C5.01562 0.421875 4.54688 0 3.98438 0C3.46875 0 3 0.421875 3 0.984375V1.96875H2.01562C0.890625 1.96875 0 2.90625 0 3.98438V18C0 19.0781 0.890625 19.9688 2.01562 19.9688H15.9844C17.1094 19.9688 18 19.0781 18 18V3.98438C18 2.90625 17.1094 1.96875 15.9844 1.96875H15V0.984375C15 0.421875 14.5312 0 14.0156 0ZM15.9844 18H2.01562V7.96875H15.9844V18ZM8.01562 10.9688C8.01562 10.4531 8.4375 9.98438 9 9.98438C9.5625 9.98438 9.98438 10.4531 9.98438 10.9688C9.98438 11.5312 9.5625 12 9 12C8.4375 12 8.01562 11.5312 8.01562 10.9688ZM3.98438 10.9688C3.98438 10.4531 4.45312 9.98438 5.01562 9.98438C5.53125 9.98438 6 10.4531 6 10.9688C6 11.5312 5.53125 12 5.01562 12C4.45312 12 3.98438 11.5312 3.98438 10.9688ZM12 10.9688C12 10.4531 12.4688 9.98438 12.9844 9.98438C13.5469 9.98438 14.0156 10.4531 14.0156 10.9688C14.0156 11.5312 13.5469 12 12.9844 12C12.4688 12 12 11.5312 12 10.9688ZM8.01562 15C8.01562 14.4375 8.4375 13.9688 9 13.9688C9.5625 13.9688 9.98438 14.4375 9.98438 15C9.98438 15.5156 9.5625 15.9844 9 15.9844C8.4375 15.9844 8.01562 15.5156 8.01562 15ZM3.98438 15C3.98438 14.4375 4.45312 13.9688 5.01562 13.9688C5.53125 13.9688 6 14.4375 6 15C6 15.5156 5.53125 15.9844 5.01562 15.9844C4.45312 15.9844 3.98438 15.5156 3.98438 15ZM12 15C12 14.4375 12.4688 13.9688 12.9844 13.9688C13.5469 13.9688 14.0156 14.4375 14.0156 15C14.0156 15.5156 13.5469 15.9844 12.9844 15.9844C12.4688 15.9844 12 15.5156 12 15Z" fill="#475569"/>
</svg>
