<svg width="24" height="21" viewBox="0 0 24 21" fill="none" xmlns="http://www.w3.org/2000/svg">
<path d="M3 7.03125C3 7.54688 3.46875 8.01562 3.98438 8.01562C4.54688 8.01562 5.01562 7.54688 5.01562 7.03125V5.01562H6.98438C7.54688 5.01562 8.01562 4.54688 8.01562 4.03125C8.01562 3.46875 7.54688 3 6.98438 3H5.01562V1.03125C5.01562 0.46875 4.54688 0 3.98438 0C3.46875 0 3 0.46875 3 1.03125V3H0.984375C0.46875 3 0 3.46875 0 4.03125C0 4.54688 0.46875 5.01562 0.984375 5.01562H3V7.03125ZM9.98438 13.0312C9.98438 11.3438 11.3438 10.0312 12.9844 10.0312C14.6719 10.0312 15.9844 11.3438 15.9844 13.0312C15.9844 14.6719 14.6719 16.0312 12.9844 16.0312C11.3438 16.0312 9.98438 14.6719 9.98438 13.0312ZM21 5.01562H17.8125L16.5938 3.65625C16.2188 3.23438 15.7031 3 15.1406 3H8.71875C8.90625 3.32812 9 3.65625 9 4.03125C9 5.10938 8.10938 6 6.98438 6H6V7.03125C6 8.10938 5.10938 9 3.98438 9C3.60938 9 3.28125 8.90625 3 8.71875V19.0312C3 20.1094 3.89062 21 5.01562 21H21C22.0781 21 23.0156 20.1094 23.0156 19.0312V7.03125C23.0156 5.90625 22.0781 5.01562 21 5.01562ZM12.9844 18C10.2188 18 8.01562 15.7969 8.01562 13.0312C8.01562 10.2656 10.2188 8.01562 12.9844 8.01562C15.75 8.01562 18 10.2656 18 13.0312C18 15.7969 15.75 18 12.9844 18Z" fill="#9CA3AF"/>
</svg>
