<svg width="20" height="18" viewBox="0 0 20 18" fill="none" xmlns="http://www.w3.org/2000/svg">
<path d="M18 0H1.96875C0.890625 0 0 0.890625 0 2.01562V15.9844C0 17.1094 0.890625 18 1.96875 18H18C19.0781 18 19.9688 17.1094 19.9688 15.9844V2.01562C19.9688 0.890625 19.0781 0 18 0V0M6.98438 14.0156H3.98438C3.42188 14.0156 3 13.5469 3 12.9844C3 12.4688 3.42188 12 3.98438 12H6.98438C7.54688 12 7.96875 12.4688 7.96875 12.9844C7.96875 13.5469 7.54688 14.0156 6.98438 14.0156V14.0156M6.98438 9.98438H3.98438C3.42188 9.98438 3 9.5625 3 9C3 8.4375 3.42188 8.01562 3.98438 8.01562H6.98438C7.54688 8.01562 7.96875 8.4375 7.96875 9C7.96875 9.5625 7.54688 9.98438 6.98438 9.98438V9.98438M6.98438 6H3.98438C3.42188 6 3 5.53125 3 5.01562C3 4.45312 3.42188 3.98438 3.98438 3.98438H6.98438C7.54688 3.98438 7.96875 4.45312 7.96875 5.01562C7.96875 5.53125 7.54688 6 6.98438 6V6M16.6875 8.10938L13.5 11.2969C13.125 11.6719 12.4688 11.6719 12.0938 11.2969L10.6875 9.89062C10.3125 9.46875 10.3125 8.85938 10.6875 8.4375C11.0625 8.0625 11.7188 8.0625 12.0938 8.4375L12.7969 9.1875L15.2812 6.70312C15.6562 6.32812 16.3125 6.32812 16.6875 6.70312C17.0625 7.07812 17.0625 7.73438 16.6875 8.10938V8.10938" fill="#9CA3AF"/>
</svg>
